<mxfile host="app.diagrams.net" agent="Mozilla/5.0 (Macintosh; Intel Mac OS X 10_15_7) AppleWebKit/537.36 (KHTML, like Gecko) Chrome/131.0.0.0 Safari/537.36" version="25.0.3">
  <diagram name="Page-1" id="LQerbf2AkNzPaHdYyRd_">
    <mxGraphModel dx="1090" dy="1036" grid="1" gridSize="10" guides="1" tooltips="1" connect="1" arrows="1" fold="1" page="1" pageScale="1" pageWidth="1200" pageHeight="1600" math="0" shadow="0">
      <root>
        <mxCell id="0" />
        <mxCell id="1" parent="0" />
        <mxCell id="nGKovSSMsudREK6v7h-v-15" style="edgeStyle=orthogonalEdgeStyle;rounded=0;orthogonalLoop=1;jettySize=auto;html=1;exitX=0.25;exitY=1;exitDx=0;exitDy=0;entryX=0.5;entryY=0;entryDx=0;entryDy=0;" edge="1" parent="1" source="nGKovSSMsudREK6v7h-v-7" target="nGKovSSMsudREK6v7h-v-8">
          <mxGeometry relative="1" as="geometry" />
        </mxCell>
        <mxCell id="nGKovSSMsudREK6v7h-v-16" style="edgeStyle=orthogonalEdgeStyle;rounded=0;orthogonalLoop=1;jettySize=auto;html=1;exitX=0.75;exitY=1;exitDx=0;exitDy=0;entryX=0.5;entryY=0;entryDx=0;entryDy=0;" edge="1" parent="1" source="nGKovSSMsudREK6v7h-v-7" target="nGKovSSMsudREK6v7h-v-10">
          <mxGeometry relative="1" as="geometry" />
        </mxCell>
        <mxCell id="nGKovSSMsudREK6v7h-v-7" value="User submits search query" style="rounded=0;whiteSpace=wrap;html=1;fillColor=#e1d5e7;strokeColor=#9673a6;" vertex="1" parent="1">
          <mxGeometry x="400" y="120" width="160" height="40" as="geometry" />
        </mxCell>
        <mxCell id="nGKovSSMsudREK6v7h-v-46" value="" style="edgeStyle=orthogonalEdgeStyle;rounded=0;orthogonalLoop=1;jettySize=auto;html=1;" edge="1" parent="1" source="nGKovSSMsudREK6v7h-v-8" target="nGKovSSMsudREK6v7h-v-45">
          <mxGeometry relative="1" as="geometry" />
        </mxCell>
        <mxCell id="nGKovSSMsudREK6v7h-v-8" value="Enhanced web search queries are created from original query" style="rounded=0;whiteSpace=wrap;html=1;glass=0;" vertex="1" parent="1">
          <mxGeometry x="280" y="200" width="160" height="80" as="geometry" />
        </mxCell>
        <mxCell id="nGKovSSMsudREK6v7h-v-48" value="" style="edgeStyle=orthogonalEdgeStyle;rounded=0;orthogonalLoop=1;jettySize=auto;html=1;" edge="1" parent="1" source="nGKovSSMsudREK6v7h-v-10" target="nGKovSSMsudREK6v7h-v-47">
          <mxGeometry relative="1" as="geometry" />
        </mxCell>
        <mxCell id="nGKovSSMsudREK6v7h-v-10" value="Enhanced image search queries are created from original query" style="rounded=0;whiteSpace=wrap;html=1;" vertex="1" parent="1">
          <mxGeometry x="520" y="200" width="160" height="80" as="geometry" />
        </mxCell>
        <mxCell id="nGKovSSMsudREK6v7h-v-18" value="" style="edgeStyle=orthogonalEdgeStyle;rounded=0;orthogonalLoop=1;jettySize=auto;html=1;" edge="1" parent="1" source="nGKovSSMsudREK6v7h-v-12" target="nGKovSSMsudREK6v7h-v-17">
          <mxGeometry relative="1" as="geometry" />
        </mxCell>
        <mxCell id="nGKovSSMsudREK6v7h-v-12" value="Using Cerebras llama-3.1-8b" style="rounded=0;whiteSpace=wrap;html=1;glass=0;fillColor=#fff2cc;strokeColor=#d6b656;" vertex="1" parent="1">
          <mxGeometry x="280" y="280" width="160" height="40" as="geometry" />
        </mxCell>
        <mxCell id="nGKovSSMsudREK6v7h-v-21" value="" style="edgeStyle=orthogonalEdgeStyle;rounded=0;orthogonalLoop=1;jettySize=auto;html=1;" edge="1" parent="1" source="nGKovSSMsudREK6v7h-v-13" target="nGKovSSMsudREK6v7h-v-20">
          <mxGeometry relative="1" as="geometry" />
        </mxCell>
        <mxCell id="nGKovSSMsudREK6v7h-v-13" value="Using Cerebras llama-3.3-70b" style="rounded=0;whiteSpace=wrap;html=1;glass=0;fillColor=#fff2cc;strokeColor=#d6b656;" vertex="1" parent="1">
          <mxGeometry x="520" y="280" width="160" height="40" as="geometry" />
        </mxCell>
        <mxCell id="nGKovSSMsudREK6v7h-v-17" value="Web searches are&lt;div&gt;performed&lt;/div&gt;" style="rounded=0;whiteSpace=wrap;html=1;glass=0;" vertex="1" parent="1">
          <mxGeometry x="280" y="360" width="160" height="40" as="geometry" />
        </mxCell>
        <mxCell id="nGKovSSMsudREK6v7h-v-25" value="" style="edgeStyle=orthogonalEdgeStyle;rounded=0;orthogonalLoop=1;jettySize=auto;html=1;" edge="1" parent="1" source="nGKovSSMsudREK6v7h-v-19" target="nGKovSSMsudREK6v7h-v-24">
          <mxGeometry relative="1" as="geometry" />
        </mxCell>
        <mxCell id="nGKovSSMsudREK6v7h-v-19" value="Using Brave Search API" style="rounded=0;whiteSpace=wrap;html=1;glass=0;fillColor=#f8cecc;strokeColor=#b85450;" vertex="1" parent="1">
          <mxGeometry x="280" y="400" width="160" height="40" as="geometry" />
        </mxCell>
        <mxCell id="nGKovSSMsudREK6v7h-v-20" value="Image searches are&lt;div&gt;performed&lt;/div&gt;" style="rounded=0;whiteSpace=wrap;html=1;glass=0;" vertex="1" parent="1">
          <mxGeometry x="520" y="360" width="160" height="40" as="geometry" />
        </mxCell>
        <mxCell id="nGKovSSMsudREK6v7h-v-28" value="" style="edgeStyle=orthogonalEdgeStyle;rounded=0;orthogonalLoop=1;jettySize=auto;html=1;" edge="1" parent="1" source="nGKovSSMsudREK6v7h-v-23" target="nGKovSSMsudREK6v7h-v-27">
          <mxGeometry relative="1" as="geometry" />
        </mxCell>
        <mxCell id="nGKovSSMsudREK6v7h-v-23" value="Using Brave Search API" style="rounded=0;whiteSpace=wrap;html=1;glass=0;fillColor=#f8cecc;strokeColor=#b85450;" vertex="1" parent="1">
          <mxGeometry x="520" y="400" width="160" height="40" as="geometry" />
        </mxCell>
        <mxCell id="nGKovSSMsudREK6v7h-v-44" value="" style="edgeStyle=orthogonalEdgeStyle;rounded=0;orthogonalLoop=1;jettySize=auto;html=1;" edge="1" parent="1" source="nGKovSSMsudREK6v7h-v-24" target="nGKovSSMsudREK6v7h-v-43">
          <mxGeometry relative="1" as="geometry" />
        </mxCell>
        <mxCell id="nGKovSSMsudREK6v7h-v-24" value="Each retrieved webpage is split into chunks. LLMs read and summarize each chunk. Then a final LLM summarization is performed using all the summaries. This is done in parallel for all webpages." style="rounded=0;whiteSpace=wrap;html=1;glass=0;" vertex="1" parent="1">
          <mxGeometry x="280" y="480" width="160" height="120" as="geometry" />
        </mxCell>
        <mxCell id="nGKovSSMsudREK6v7h-v-32" style="edgeStyle=orthogonalEdgeStyle;rounded=0;orthogonalLoop=1;jettySize=auto;html=1;exitX=0.5;exitY=1;exitDx=0;exitDy=0;entryX=0.25;entryY=0;entryDx=0;entryDy=0;" edge="1" parent="1" source="nGKovSSMsudREK6v7h-v-26" target="nGKovSSMsudREK6v7h-v-30">
          <mxGeometry relative="1" as="geometry" />
        </mxCell>
        <mxCell id="nGKovSSMsudREK6v7h-v-26" value="Using Cerebras llama-3.3-70b" style="rounded=0;whiteSpace=wrap;html=1;glass=0;fillColor=#fff2cc;strokeColor=#d6b656;" vertex="1" parent="1">
          <mxGeometry x="280" y="600" width="160" height="40" as="geometry" />
        </mxCell>
        <mxCell id="nGKovSSMsudREK6v7h-v-39" value="" style="edgeStyle=orthogonalEdgeStyle;rounded=0;orthogonalLoop=1;jettySize=auto;html=1;" edge="1" parent="1" source="nGKovSSMsudREK6v7h-v-27" target="nGKovSSMsudREK6v7h-v-38">
          <mxGeometry relative="1" as="geometry" />
        </mxCell>
        <mxCell id="nGKovSSMsudREK6v7h-v-27" value="Every image is summarized with a description of what is in the image." style="rounded=0;whiteSpace=wrap;html=1;glass=0;" vertex="1" parent="1">
          <mxGeometry x="520" y="480" width="160" height="120" as="geometry" />
        </mxCell>
        <mxCell id="nGKovSSMsudREK6v7h-v-33" style="edgeStyle=orthogonalEdgeStyle;rounded=0;orthogonalLoop=1;jettySize=auto;html=1;exitX=0.5;exitY=1;exitDx=0;exitDy=0;entryX=0.75;entryY=0;entryDx=0;entryDy=0;" edge="1" parent="1" source="nGKovSSMsudREK6v7h-v-29" target="nGKovSSMsudREK6v7h-v-30">
          <mxGeometry relative="1" as="geometry" />
        </mxCell>
        <mxCell id="nGKovSSMsudREK6v7h-v-29" value="Using Groq&amp;nbsp;llama-3.2-11b/90b-vision-preview" style="rounded=0;whiteSpace=wrap;html=1;glass=0;fillColor=#ffe6cc;strokeColor=#d79b00;" vertex="1" parent="1">
          <mxGeometry x="520" y="600" width="160" height="40" as="geometry" />
        </mxCell>
        <mxCell id="nGKovSSMsudREK6v7h-v-42" value="" style="edgeStyle=orthogonalEdgeStyle;rounded=0;orthogonalLoop=1;jettySize=auto;html=1;" edge="1" parent="1" source="nGKovSSMsudREK6v7h-v-30" target="nGKovSSMsudREK6v7h-v-41">
          <mxGeometry relative="1" as="geometry" />
        </mxCell>
        <mxCell id="nGKovSSMsudREK6v7h-v-30" value="Final answer LLM takes all sources + summaries + previous queries in session as input and answers the original query." style="rounded=0;whiteSpace=wrap;html=1;glass=0;" vertex="1" parent="1">
          <mxGeometry x="400" y="680" width="160" height="80" as="geometry" />
        </mxCell>
        <mxCell id="nGKovSSMsudREK6v7h-v-49" value="" style="edgeStyle=orthogonalEdgeStyle;rounded=0;orthogonalLoop=1;jettySize=auto;html=1;" edge="1" parent="1" source="nGKovSSMsudREK6v7h-v-34" target="nGKovSSMsudREK6v7h-v-36">
          <mxGeometry relative="1" as="geometry" />
        </mxCell>
        <mxCell id="nGKovSSMsudREK6v7h-v-34" value="Using gpt-4o-mini" style="rounded=0;whiteSpace=wrap;html=1;glass=0;fillColor=#dae8fc;strokeColor=#6c8ebf;" vertex="1" parent="1">
          <mxGeometry x="400" y="760" width="160" height="40" as="geometry" />
        </mxCell>
        <mxCell id="nGKovSSMsudREK6v7h-v-35" value="&lt;b&gt;All Cerebras/Groq calls use gpt-4o-mini as failsafe&lt;/b&gt;" style="rounded=0;whiteSpace=wrap;html=1;glass=0;fillColor=#fad9d5;strokeColor=#ae4132;" vertex="1" parent="1">
          <mxGeometry x="360" y="960" width="240" height="40" as="geometry" />
        </mxCell>
        <mxCell id="nGKovSSMsudREK6v7h-v-58" style="edgeStyle=orthogonalEdgeStyle;rounded=0;orthogonalLoop=1;jettySize=auto;html=1;entryX=0;entryY=0.5;entryDx=0;entryDy=0;" edge="1" parent="1" source="nGKovSSMsudREK6v7h-v-36" target="nGKovSSMsudREK6v7h-v-57">
          <mxGeometry relative="1" as="geometry" />
        </mxCell>
        <mxCell id="nGKovSSMsudREK6v7h-v-36" value="Follow-up questions are generated" style="rounded=0;whiteSpace=wrap;html=1;glass=0;" vertex="1" parent="1">
          <mxGeometry x="400" y="840" width="160" height="40" as="geometry" />
        </mxCell>
        <mxCell id="nGKovSSMsudREK6v7h-v-38" value="Image search and read results are streamed onto frontend" style="rounded=0;whiteSpace=wrap;html=1;glass=0;fillColor=#d5e8d4;strokeColor=#82b366;" vertex="1" parent="1">
          <mxGeometry x="720" y="510" width="160" height="60" as="geometry" />
        </mxCell>
        <mxCell id="nGKovSSMsudREK6v7h-v-41" value="Final answer is streamed onto frontend" style="rounded=0;whiteSpace=wrap;html=1;glass=0;fillColor=#d5e8d4;strokeColor=#82b366;" vertex="1" parent="1">
          <mxGeometry x="720" y="700" width="160" height="40" as="geometry" />
        </mxCell>
        <mxCell id="nGKovSSMsudREK6v7h-v-43" value="Web search and read results are streamed onto frontend" style="rounded=0;whiteSpace=wrap;html=1;glass=0;fillColor=#d5e8d4;strokeColor=#82b366;" vertex="1" parent="1">
          <mxGeometry x="80" y="510" width="160" height="60" as="geometry" />
        </mxCell>
        <mxCell id="nGKovSSMsudREK6v7h-v-45" value="Enhanced web search queries are rendered on frontend" style="rounded=0;whiteSpace=wrap;html=1;glass=0;fillColor=#d5e8d4;strokeColor=#82b366;" vertex="1" parent="1">
          <mxGeometry x="80" y="210" width="160" height="60" as="geometry" />
        </mxCell>
        <mxCell id="nGKovSSMsudREK6v7h-v-47" value="Enhanced image search queries are rendered on frontend" style="rounded=0;whiteSpace=wrap;html=1;glass=0;fillColor=#d5e8d4;strokeColor=#82b366;" vertex="1" parent="1">
          <mxGeometry x="720" y="210" width="160" height="60" as="geometry" />
        </mxCell>
        <mxCell id="nGKovSSMsudREK6v7h-v-50" value="Using Groq llama-3.3-70b-versatile" style="rounded=0;whiteSpace=wrap;html=1;glass=0;fillColor=#ffe6cc;strokeColor=#d79b00;" vertex="1" parent="1">
          <mxGeometry x="400" y="880" width="160" height="40" as="geometry" />
        </mxCell>
        <mxCell id="nGKovSSMsudREK6v7h-v-51" value="" style="endArrow=none;dashed=1;html=1;dashPattern=1 3;strokeWidth=2;rounded=0;" edge="1" parent="1">
          <mxGeometry width="50" height="50" relative="1" as="geometry">
            <mxPoint x="260" y="920" as="sourcePoint" />
            <mxPoint x="260" y="120" as="targetPoint" />
          </mxGeometry>
        </mxCell>
        <mxCell id="nGKovSSMsudREK6v7h-v-52" value="" style="endArrow=none;dashed=1;html=1;dashPattern=1 3;strokeWidth=2;rounded=0;" edge="1" parent="1">
          <mxGeometry width="50" height="50" relative="1" as="geometry">
            <mxPoint x="700" y="920" as="sourcePoint" />
            <mxPoint x="700" y="120" as="targetPoint" />
          </mxGeometry>
        </mxCell>
        <mxCell id="nGKovSSMsudREK6v7h-v-53" value="&lt;b&gt;Frontend&lt;/b&gt;&lt;div&gt;Next.js, Tailwind, shadcn/ui&lt;/div&gt;" style="shape=process;whiteSpace=wrap;html=1;backgroundOutline=1;" vertex="1" parent="1">
          <mxGeometry x="80" y="60" width="180" height="60" as="geometry" />
        </mxCell>
        <mxCell id="nGKovSSMsudREK6v7h-v-54" value="&lt;b&gt;Server-side edge actions&lt;/b&gt;&lt;div&gt;Next.js, OpenAI, Cerebras, Groq, Brave Search API&lt;b&gt;&lt;/b&gt;&lt;/div&gt;" style="shape=process;whiteSpace=wrap;html=1;backgroundOutline=1;" vertex="1" parent="1">
          <mxGeometry x="260" y="60" width="440" height="60" as="geometry" />
        </mxCell>
        <mxCell id="nGKovSSMsudREK6v7h-v-55" value="&lt;b&gt;Frontend&lt;/b&gt;&lt;div&gt;Next.js, Tailwind, shadcn/ui&lt;b&gt;&lt;/b&gt;&lt;/div&gt;" style="shape=process;whiteSpace=wrap;html=1;backgroundOutline=1;" vertex="1" parent="1">
          <mxGeometry x="700" y="60" width="180" height="60" as="geometry" />
        </mxCell>
        <mxCell id="nGKovSSMsudREK6v7h-v-56" value="&lt;div style=&quot;&quot;&gt;&lt;b style=&quot;background-color: initial;&quot;&gt;Tech Stack&lt;/b&gt;&lt;span style=&quot;background-color: initial;&quot;&gt;:&amp;nbsp;&lt;/span&gt;&lt;span style=&quot;background-color: initial;&quot;&gt;TypeScript&amp;nbsp; |&lt;/span&gt;&lt;span style=&quot;background-color: initial;&quot;&gt;&amp;nbsp;&lt;/span&gt;&lt;span style=&quot;background-color: initial;&quot;&gt;&amp;nbsp;&lt;/span&gt;&lt;span style=&quot;background-color: initial;&quot;&gt;Next.js (App Router)&lt;/span&gt;&lt;span style=&quot;background-color: initial;&quot;&gt;&amp;nbsp;&lt;/span&gt;&lt;span style=&quot;background-color: initial;&quot;&gt;&amp;nbsp;|&lt;/span&gt;&lt;span style=&quot;background-color: initial;&quot;&gt;&amp;nbsp;&lt;/span&gt;&lt;span style=&quot;background-color: initial;&quot;&gt;&amp;nbsp;&lt;/span&gt;&lt;span style=&quot;background-color: initial;&quot;&gt;Tailwind&lt;/span&gt;&lt;span style=&quot;background-color: initial;&quot;&gt;&amp;nbsp;&lt;/span&gt;&lt;span style=&quot;background-color: initial;&quot;&gt;&amp;nbsp;|&lt;/span&gt;&lt;span style=&quot;background-color: initial;&quot;&gt;&amp;nbsp;&lt;/span&gt;&lt;span style=&quot;background-color: initial;&quot;&gt;&amp;nbsp;&lt;/span&gt;&lt;span style=&quot;background-color: initial;&quot;&gt;shadcn/ui&lt;/span&gt;&lt;span style=&quot;background-color: initial;&quot;&gt;&amp;nbsp;&lt;/span&gt;&lt;span style=&quot;background-color: initial;&quot;&gt;&amp;nbsp;|&lt;/span&gt;&lt;span style=&quot;background-color: initial;&quot;&gt;&amp;nbsp;&lt;/span&gt;&lt;span style=&quot;background-color: initial;&quot;&gt;&amp;nbsp;&lt;/span&gt;&lt;span style=&quot;background-color: initial;&quot;&gt;OpenAI GPT&lt;/span&gt;&lt;span style=&quot;background-color: initial;&quot;&gt;&amp;nbsp;&lt;/span&gt;&lt;span style=&quot;background-color: initial;&quot;&gt;&amp;nbsp;|&lt;/span&gt;&lt;span style=&quot;background-color: initial;&quot;&gt;&amp;nbsp;&lt;/span&gt;&lt;span style=&quot;background-color: initial;&quot;&gt;&amp;nbsp;&lt;/span&gt;&lt;span style=&quot;background-color: initial;&quot;&gt;Cerebras Llama&lt;/span&gt;&lt;span style=&quot;background-color: initial;&quot;&gt;&amp;nbsp;&lt;/span&gt;&lt;span style=&quot;background-color: initial;&quot;&gt;&amp;nbsp;|&lt;/span&gt;&lt;span style=&quot;background-color: initial;&quot;&gt;&amp;nbsp;&lt;/span&gt;&lt;span style=&quot;background-color: initial;&quot;&gt;&amp;nbsp;&lt;/span&gt;&lt;span style=&quot;background-color: initial;&quot;&gt;Groq Llama&lt;/span&gt;&lt;span style=&quot;background-color: initial;&quot;&gt;&amp;nbsp;&lt;/span&gt;&lt;span style=&quot;background-color: initial;&quot;&gt;&amp;nbsp;|&lt;/span&gt;&lt;span style=&quot;background-color: initial;&quot;&gt;&amp;nbsp;&lt;/span&gt;&lt;span style=&quot;background-color: initial;&quot;&gt;&amp;nbsp;&lt;/span&gt;&lt;span style=&quot;background-color: initial;&quot;&gt;Brave Search&lt;/span&gt;&lt;/div&gt;" style="rounded=0;whiteSpace=wrap;html=1;align=center;fillColor=#bac8d3;strokeColor=#23445d;" vertex="1" parent="1">
          <mxGeometry x="80" y="920" width="800" height="40" as="geometry" />
        </mxCell>
        <mxCell id="nGKovSSMsudREK6v7h-v-57" value="Follow-up questions are rendered on frontend" style="rounded=0;whiteSpace=wrap;html=1;glass=0;fillColor=#d5e8d4;strokeColor=#82b366;" vertex="1" parent="1">
          <mxGeometry x="720" y="840" width="160" height="40" as="geometry" />
        </mxCell>
      </root>
    </mxGraphModel>
  </diagram>
</mxfile>
